<svg xmlns="http://www.w3.org/2000/svg" viewBox="0 0 79.57 79.57"><defs><style>.cls-1{fill:#333033;}</style></defs><title>Recurso 1</title><g id="Capa_2" data-name="Capa 2"><g id="Capa_1-2" data-name="Capa 1"><path class="cls-1" d="M39.78,0A39.79,39.79,0,1,0,79.57,39.78,39.83,39.83,0,0,0,39.78,0Zm0,75.79a36,36,0,1,1,36-36A36,36,0,0,1,39.78,75.79Z"/><path class="cls-1" d="M63.89,56.29H16.64a1.37,1.37,0,0,1-1.37-1.37V26.39A1.37,1.37,0,0,1,16.64,25H63.89a1.37,1.37,0,0,1,1.38,1.37V54.92A1.38,1.38,0,0,1,63.89,56.29ZM18,53.54h44.5V27.77H18Z"/><path class="cls-1" d="M40.27,46.74a1.36,1.36,0,0,1-.86-.3l-23.63-19a1.38,1.38,0,0,1,1.72-2.15L40.27,43.6,63,25.32a1.38,1.38,0,0,1,1.72,2.15l-23.62,19A1.39,1.39,0,0,1,40.27,46.74Z"/><path class="cls-1" d="M16.64,56.29a1.37,1.37,0,0,1-.89-2.42l17.3-14.64a1.37,1.37,0,1,1,1.77,2.1L17.53,56A1.36,1.36,0,0,1,16.64,56.29Z"/><path class="cls-1" d="M63.89,56.29A1.38,1.38,0,0,1,63,56L45.71,41.33a1.37,1.37,0,0,1,1.77-2.1l17.3,14.64a1.37,1.37,0,0,1-.89,2.42Z"/></g></g></svg>