<svg xmlns="http://www.w3.org/2000/svg" viewBox="0 0 79.57 79.57"><defs><style>.cls-1{fill:#333033}</style></defs><g id="Capa_2" data-name="Capa 2"><g id="Capa_1-2" data-name="Capa 1"><path class="cls-1" d="M39.78 0a39.79 39.79 0 1039.79 39.78A39.83 39.83 0 0039.78 0zm0 75.79a36 36 0 1136-36 36 36 0 01-36 36z"/><path class="cls-1" d="M63.89 56.29H16.64a1.37 1.37 0 01-1.37-1.37V26.39A1.37 1.37 0 0116.64 25h47.25a1.37 1.37 0 011.38 1.37v28.55a1.38 1.38 0 01-1.38 1.37zM18 53.54h44.5V27.77H18z"/><path class="cls-1" d="M40.27 46.74a1.36 1.36 0 01-.86-.3l-23.63-19a1.38 1.38 0 011.72-2.15L40.27 43.6 63 25.32a1.38 1.38 0 011.72 2.15l-23.62 19a1.39 1.39 0 01-.83.27z"/><path class="cls-1" d="M16.64 56.29a1.37 1.37 0 01-.89-2.42l17.3-14.64a1.37 1.37 0 111.77 2.1L17.53 56a1.36 1.36 0 01-.89.29zm47.25 0A1.38 1.38 0 0163 56L45.71 41.33a1.37 1.37 0 011.77-2.1l17.3 14.64a1.37 1.37 0 01-.89 2.42z"/></g></g></svg>