<svg xmlns="http://www.w3.org/2000/svg" viewBox="0 0 80.09 80.09"><defs><style>.cls-1,.cls-2{fill:#312c30;}.cls-2{fill-rule:evenodd;}</style></defs><title>Recurso 3</title><g id="Capa_2" data-name="Capa 2"><g id="Página_de_Inicio" data-name="Página de Inicio"><path class="cls-1" d="M40,80.09A40,40,0,1,1,80.09,40,40.09,40.09,0,0,1,40,80.09ZM40,4.3A35.75,35.75,0,1,0,75.79,40,35.79,35.79,0,0,0,40,4.3Z"/><path class="cls-2" d="M33.76,40.23V63.44a.61.61,0,0,0,.61.61H43a.6.6,0,0,0,.6-.61V39.86h6.25a.6.6,0,0,0,.6-.56l.6-7.11a.6.6,0,0,0-.6-.65H43.59v-5a2.14,2.14,0,0,1,2.14-2.14h4.82a.6.6,0,0,0,.6-.61v-7.1a.6.6,0,0,0-.6-.61H42.41a8.65,8.65,0,0,0-8.65,8.65v6.85h-4.3a.6.6,0,0,0-.61.6v7.11a.61.61,0,0,0,.61.61h4.3Z"/></g></g></svg>