<svg xmlns="http://www.w3.org/2000/svg" viewBox="0 0 80.09 80.09"><g data-name="Capa 2"><g data-name="Página de Inicio" fill="#312c30"><path d="M40 80.09A40 40 0 1180.09 40 40.09 40.09 0 0140 80.09zM40 4.3A35.75 35.75 0 1075.79 40 35.79 35.79 0 0040 4.3z"/><path d="M33.76 40.23v23.21a.61.61 0 00.61.61H43a.6.6 0 00.6-.61V39.86h6.25a.6.6 0 00.6-.56l.6-7.11a.6.6 0 00-.6-.65h-6.86v-5a2.14 2.14 0 012.14-2.14h4.82a.6.6 0 00.6-.61v-7.1a.6.6 0 00-.6-.61h-8.14a8.65 8.65 0 00-8.65 8.65v6.85h-4.3a.6.6 0 00-.61.6v7.11a.61.61 0 00.61.61h4.3z" fill-rule="evenodd"/></g></g></svg>