<svg xmlns="http://www.w3.org/2000/svg" viewBox="0 0 79.57 79.57"><g data-name="Capa 2"><path d="M39.78 79.57a39.79 39.79 0 1139.79-39.79 39.83 39.83 0 01-39.79 39.79zm0-75.79a36 36 0 1036 36 36 36 0 00-36-36zm12.08 21.46a2.65 2.65 0 102.65 2.65 2.65 2.65 0 00-2.65-2.65zm-11.76 3.4a11.11 11.11 0 1011.11 11.11A11.12 11.12 0 0040.1 28.64zm0 18.23a7.12 7.12 0 117.12-7.12 7.13 7.13 0 01-7.12 7.12zm22.42-16.36A13.55 13.55 0 0049 17H31.08a13.56 13.56 0 00-13.56 13.51v17.9A13.56 13.56 0 0031.08 62H49a13.55 13.55 0 0013.52-13.59zm-4.24 17.9a9.3 9.3 0 01-9.28 9.3H31.08a9.3 9.3 0 01-9.31-9.3v-17.9a9.3 9.3 0 019.31-9.3H49a9.3 9.3 0 019.31 9.3z" fill="#312c30" data-name="Página de Inicio"/></g></svg>