<svg xmlns="http://www.w3.org/2000/svg" viewBox="0 0 79.57 79.57"><defs><style>.cls-1{fill:#312c30;}</style></defs><title>Recurso 4</title><g id="Capa_2" data-name="Capa 2"><g id="Página_de_Inicio" data-name="Página de Inicio"><path class="cls-1" d="M39.78,79.57A39.79,39.79,0,1,1,79.57,39.78,39.83,39.83,0,0,1,39.78,79.57Zm0-75.79a36,36,0,1,0,36,36A36,36,0,0,0,39.78,3.78ZM51.86,25.24a2.65,2.65,0,1,0,2.65,2.65A2.65,2.65,0,0,0,51.86,25.24ZM40.1,28.64A11.11,11.11,0,1,0,51.21,39.75,11.12,11.12,0,0,0,40.1,28.64Zm0,18.23a7.12,7.12,0,1,1,7.12-7.12A7.13,7.13,0,0,1,40.1,46.87ZM62.52,30.51A13.55,13.55,0,0,0,49,17H31.08A13.56,13.56,0,0,0,17.52,30.51v17.9A13.56,13.56,0,0,0,31.08,62H49A13.55,13.55,0,0,0,62.52,48.41Zm-4.24,17.9A9.3,9.3,0,0,1,49,57.71H31.08a9.3,9.3,0,0,1-9.31-9.3V30.51a9.3,9.3,0,0,1,9.31-9.3H49a9.3,9.3,0,0,1,9.31,9.3Z"/></g></g></svg>