<?xml version="1.0" encoding="UTF-8"?>
<!DOCTYPE svg PUBLIC "-//W3C//DTD SVG 1.1//EN" "http://www.w3.org/Graphics/SVG/1.1/DTD/svg11.dtd">
<!-- Creator: CorelDRAW 2019 (64-Bit Versión de evaluación) -->
<svg xmlns="http://www.w3.org/2000/svg" xml:space="preserve" width="179.211mm" height="43.0388mm" version="1.1" style="shape-rendering:geometricPrecision; text-rendering:geometricPrecision; image-rendering:optimizeQuality; fill-rule:evenodd; clip-rule:evenodd"
viewBox="0 0 17921.1 4303.88"
 xmlns:xlink="http://www.w3.org/1999/xlink"
 xmlns:xodm="http://www.corel.com/coreldraw/odm/2003">
 <defs>
  <style type="text/css">
   <![CDATA[
    .fil2 {fill:#713835;fill-rule:nonzero}
    .fil1 {fill:#713735;fill-rule:nonzero}
    .fil3 {fill:#5C4240;fill-rule:nonzero}
    .fil0 {fill:#41302F;fill-rule:nonzero}
   ]]>
  </style>
 </defs>
 <g id="Capa_x0020_1">
  <metadata id="CorelCorpID_0Corel-Layer"/>
  <path class="fil0" d="M157.63 632.58l75.4 0c75.39,0 123.36,6.34 147.35,15.85 23.99,12.68 41.13,28.53 54.84,53.89 10.28,25.36 17.13,76.08 17.13,152.15l0 1464.47c0,66.56 -6.85,110.94 -20.56,136.3 -13.71,28.53 -30.84,47.55 -54.83,60.23 -27.42,9.51 -75.39,15.85 -143.93,15.85l-75.4 0 0 129.96 1679.2 0 260.45 -675.18 -147.35 -47.54c-71.97,145.81 -147.36,256.75 -222.75,329.66 -78.83,72.91 -167.92,129.96 -277.59,168 -106.23,38.04 -229.61,57.06 -373.53,57.06l-126.8 0c-75.39,0 -119.95,-3.17 -137.08,-9.51 -20.56,-9.51 -37.7,-22.19 -44.55,-41.21 -3.43,-12.68 -6.86,-53.89 -6.86,-123.62l0 -1502.51c0,-57.05 6.86,-95.09 17.14,-117.28 13.71,-22.19 34.27,-38.04 58.26,-50.72 27.42,-9.51 75.4,-15.85 140.5,-15.85l82.25 0 0 -129.96 -901.29 0 0 129.96zm6058.84 15.85c-99.38,-63.39 -195.33,-110.94 -294.72,-139.47 -95.95,-28.53 -198.76,-41.21 -311.84,-41.21 -212.47,0 -407.81,50.72 -589.45,148.98 -185.05,101.44 -325.55,234.57 -431.79,405.74 -102.8,168 -154.21,358.2 -154.21,567.4 0,282.12 92.53,529.37 281.01,735.41 226.18,247.24 520.89,370.87 884.16,370.87 164.49,0 315.27,-25.36 452.35,-76.08 137.08,-50.72 267.3,-129.96 397.53,-234.57 78.81,-66.56 154.21,-145.81 222.75,-240.9l-133.66 -85.59c-113.08,142.64 -250.17,250.42 -404.38,329.66 -154.21,79.25 -308.42,117.29 -455.78,117.29 -157.64,0 -304.99,-38.04 -438.65,-117.29 -137.07,-79.24 -246.73,-190.19 -325.56,-336 -78.82,-142.64 -119.94,-307.47 -119.94,-494.49 0,-180.68 41.12,-342.35 119.94,-484.99 78.83,-145.81 181.63,-253.59 308.42,-329.66 126.81,-72.91 263.88,-110.95 414.66,-110.95 130.23,0 246.75,25.36 352.99,79.25 106.23,53.89 195.33,126.79 267.3,218.72 44.54,57.06 109.66,168 191.91,332.83l154.21 -41.21 -212.47 -719.55 -119.95 0 -54.83 145.81zm3632.57 0c-99.39,-63.39 -195.34,-110.94 -294.72,-139.47 -95.95,-28.53 -198.77,-41.21 -311.85,-41.21 -212.47,0 -407.81,50.72 -589.44,148.98 -185.06,101.44 -325.56,234.57 -431.8,405.74 -102.8,168 -154.21,358.2 -154.21,567.4 0,282.12 92.53,529.37 281.01,735.41 226.18,247.24 520.89,370.87 884.16,370.87 164.49,0 315.27,-25.36 452.36,-76.08 137.07,-50.72 267.29,-129.96 397.52,-234.57 78.81,-66.56 154.21,-145.81 222.75,-240.9l-133.66 -85.59c-113.08,142.64 -250.16,250.42 -404.37,329.66 -154.21,79.25 -308.42,117.29 -455.79,117.29 -157.64,0 -304.99,-38.04 -438.65,-117.29 -137.07,-79.24 -246.73,-190.19 -325.55,-336 -78.83,-142.64 -119.95,-307.47 -119.95,-494.49 0,-180.68 41.12,-342.35 119.95,-484.99 78.82,-145.81 181.62,-253.59 308.42,-329.66 126.8,-72.91 263.87,-110.95 414.66,-110.95 130.23,0 246.74,25.36 352.98,79.25 106.23,53.89 195.33,126.79 267.3,218.72 44.54,57.06 109.66,168 191.91,332.83l154.21 -41.21 -212.47 -719.55 -119.95 0 -54.82 145.81zm729.93 -15.85l92.53 0c58.26,0 99.38,6.34 126.79,19.02 23.99,12.68 41.13,31.7 54.84,57.06 10.28,25.36 17.13,72.91 17.13,139.47l0 1486.66c0,63.39 -6.85,107.77 -20.56,133.13 -10.28,25.36 -27.42,41.21 -51.41,50.72 -20.56,9.51 -75.38,12.68 -161.06,12.68l-58.26 0 0 129.96 901.29 0 0 -129.96c-116.51,0 -185.05,-3.17 -209.04,-9.51 -34.28,-9.51 -54.84,-22.19 -68.55,-47.55 -10.28,-22.19 -17.13,-72.91 -17.13,-155.32l0 -687.86 1213.14 0 0 672.01c0,91.92 -3.42,145.81 -10.28,164.83 -6.85,22.19 -23.99,38.04 -51.4,47.55 -27.42,9.51 -82.26,15.85 -164.5,15.85l-65.11 0 0 129.96 891.01 0 0 -129.96c-113.1,0 -181.63,-3.17 -202.19,-9.51 -30.85,-9.51 -54.84,-25.36 -65.12,-47.55 -10.28,-22.19 -17.13,-72.91 -17.13,-155.32l0 -1470.81c0,-72.9 6.85,-120.45 17.13,-142.64 10.28,-22.19 27.42,-41.21 54.84,-53.89 23.99,-12.68 68.54,-19.02 133.64,-19.02l78.83 0 0 -129.96 -891.01 0 0 129.96 92.53 0c58.25,0 102.8,9.51 133.65,25.36 27.42,15.85 47.98,41.21 58.26,72.91 3.43,19.02 6.85,66.56 6.85,145.81l0 586.42 -1213.14 0 0 -602.27c0,-72.9 3.42,-120.45 13.71,-145.81 13.7,-28.53 34.27,-50.72 65.11,-63.4 30.85,-12.68 82.25,-19.02 154.21,-19.02l61.69 0 0 -129.96 -901.29 0 0 129.96zm3845.03 0l95.96 0c58.25,0 99.38,6.34 123.37,19.02 23.99,12.68 41.12,31.7 54.83,57.06 13.71,28.53 20.56,72.91 20.56,136.3l0 1413.75c0,91.93 -3.42,145.81 -3.42,155.32 -6.86,28.53 -20.57,50.72 -34.27,69.74 -17.14,15.85 -34.28,28.53 -54.84,38.04 -20.56,6.34 -61.68,9.51 -123.36,9.51l-78.83 0 0 129.96 887.58 0 0 -129.96 -58.26 0c-78.81,0 -133.64,-6.34 -157.63,-22.19 -27.42,-12.68 -47.98,-38.04 -61.69,-72.91 -3.43,-19.02 -6.86,-66.57 -6.86,-139.47l0 -665.67 298.15 0 853.31 1030.2 531.17 0 0 -129.96 -41.11 0c-54.84,0 -102.82,-9.51 -143.94,-25.36 -44.54,-15.85 -85.67,-41.21 -123.37,-72.91 -17.13,-12.68 -47.98,-47.55 -99.38,-104.6l-610 -697.37c188.48,-3.17 342.7,-28.53 455.79,-79.24 116.52,-47.55 202.19,-117.29 263.87,-206.04 61.69,-85.59 92.53,-187.02 92.53,-297.97 0,-110.94 -30.84,-206.04 -92.53,-288.45 -65.11,-82.42 -154.21,-145.82 -270.73,-190.19 -116.51,-44.38 -287.86,-66.57 -517.46,-66.57l-1199.44 0 0 129.96zm1206.29 38.04c133.65,0 233.03,15.85 301.57,44.38 65.11,28.53 119.95,72.91 157.64,133.13 37.69,60.23 58.26,133.14 58.26,218.72 0,104.61 -27.42,187.02 -82.25,253.59 -51.4,66.56 -126.8,110.94 -219.32,136.3 -65.11,19.02 -178.21,28.53 -342.7,28.53l-476.35 0 0 -814.65 603.15 0z"/>
  <path class="fil1" d="M1904.5 1485.88c-19.1,47.19 -34.37,76.9 -47.73,90.88 -11.46,15.73 -24.82,26.21 -40.1,31.45 -17.18,6.99 -42,10.49 -78.27,10.49l0 71.65 387.55 0 0 -71.65c-9.53,0 -22.91,0 -40.09,0 -24.81,0 -42,-3.5 -53.46,-6.99 -11.44,-5.24 -20.99,-10.49 -26.72,-19.22 -7.63,-8.74 -9.55,-19.23 -9.55,-29.71 0,-10.49 3.82,-29.71 15.28,-55.92l101.18 -256.9 467.74 0 87.83 230.68c19.09,45.44 26.73,75.15 26.73,87.38 0,15.73 -9.55,29.71 -26.73,40.19 -9.55,5.25 -28.64,8.74 -59.18,8.74 -13.37,0 -28.65,0 -43.92,1.75l0 71.65 462.02 0 0 -71.65 -19.09 0c-34.37,0 -61.09,-8.74 -82.1,-24.47 -21,-15.72 -40.09,-48.93 -61.09,-97.86l-402.83 -996.11 -154.65 0 -402.82 985.62zm442.92 -831.84l198.55 512.04 -400.92 0 202.37 -512.04z"/>
  <path class="fil1" d="M6963.01 561.42c-105.01,54.18 -187.1,127.57 -246.29,220.2 -57.27,92.62 -85.91,197.47 -85.91,314.56 0,157.28 51.55,291.84 154.65,405.43 124.09,138.06 295.91,207.96 509.74,207.96 192.82,0 351.29,-57.67 475.38,-173.01 124.09,-115.34 187.1,-263.88 187.1,-447.37 0,-117.09 -28.64,-221.94 -84,-311.07 -55.37,-89.13 -135.56,-162.52 -238.65,-218.45 -95.46,-52.42 -202.37,-78.64 -320.74,-78.64 -127.91,0 -244.38,26.22 -351.28,80.39zm580.38 66.41c61.09,36.7 110.73,92.62 148.92,167.77 43.9,89.12 64.91,186.99 64.91,293.59 0,104.85 -21.01,200.97 -64.91,286.6 -43.91,85.63 -99.28,148.54 -166.1,188.74 -66.82,40.19 -143.19,59.41 -231.01,59.41 -85.91,0 -164.18,-20.97 -234.82,-61.16 -70.64,-40.2 -126.01,-99.61 -166.1,-176.51 -42.01,-76.89 -63,-171.26 -63,-281.35 0,-115.34 20.99,-213.21 63,-291.85 41.99,-78.64 97.36,-138.06 168,-178.25 70.64,-40.19 152.74,-61.16 250.1,-61.16 91.64,0 168.01,17.47 231.01,54.17z"/>
  <path class="fil1" d="M13069.94 571.91c63,0 99.28,1.75 110.73,5.24 19.1,6.99 32.46,17.48 42.01,29.71 7.63,12.23 11.45,38.45 11.45,75.14l0 819.61c0,38.45 -3.82,62.92 -9.54,73.4 -7.64,17.48 -21.01,27.96 -36.28,36.7 -11.45,5.24 -38.18,6.99 -82.09,6.99l-36.28 0 0 71.65 1097.77 0 145.1 -372.23 -84 -27.96c-34.37,69.9 -68.74,124.07 -106.92,162.52 -45.82,48.93 -99.27,85.63 -162.28,108.35 -61.09,24.47 -145.1,36.7 -255.82,36.7l-194.74 0c-42,0 -66.82,-1.75 -76.37,-5.24 -9.55,-5.25 -17.18,-10.49 -21,-19.23 -3.82,-8.73 -5.73,-33.2 -5.73,-73.39l0 -386.22 156.56 0c49.63,0 84,3.5 103.09,8.74 21,5.24 40.09,15.73 57.27,31.46 17.19,15.73 28.64,33.2 36.27,50.68 5.74,17.47 9.55,45.43 9.55,85.63l0 45.43 91.65 0 0 -522.52 -91.65 0 0 19.23c0,50.67 -3.81,85.63 -13.36,104.85 -11.46,26.21 -30.54,48.93 -61.09,68.15 -28.64,17.48 -72.55,26.22 -131.73,26.22l-156.56 0 0 -436.89 316.92 0c89.74,0 152.74,3.49 187.1,10.48 34.37,6.99 68.73,20.97 103.1,40.2 34.37,20.97 63,45.43 87.82,75.14 22.91,29.71 45.82,69.9 66.82,120.58l82.1 -27.96 -122.2 -312.81 -1057.67 0 0 71.65z"/>
  <path class="fil1" d="M16563.18 1485.88c-19.1,47.19 -34.37,76.9 -47.73,90.88 -11.46,15.73 -24.82,26.21 -40.1,31.45 -17.18,6.99 -42,10.49 -78.27,10.49l0 71.65 387.55 0 0 -71.65c-9.54,0 -22.91,0 -40.09,0 -24.81,0 -42,-3.5 -53.46,-6.99 -11.45,-5.24 -20.99,-10.49 -26.72,-19.22 -7.63,-8.74 -9.55,-19.23 -9.55,-29.71 0,-10.49 3.82,-29.71 15.28,-55.92l101.18 -256.9 467.74 0 87.83 230.68c19.09,45.44 26.73,75.15 26.73,87.38 0,15.73 -9.55,29.71 -26.73,40.19 -9.55,5.25 -28.64,8.74 -59.18,8.74 -13.38,0 -28.65,0 -43.92,1.75l0 71.65 462.02 0 0 -71.65 -19.09 0c-34.37,0 -61.09,-8.74 -82.1,-24.47 -21,-15.72 -40.09,-48.93 -61.09,-97.86l-402.83 -996.11 -154.65 0 -402.82 985.62zm442.92 -831.84l198.55 512.04 -400.92 0 202.37 -512.04z"/>
  <path class="fil2" d="M6704.75 2008.31c121.64,-43.44 232.41,-82.22 362.27,-63.6 354.04,52.74 671.19,344.37 940.5,-58.95 -109.36,26.37 -213.25,60.51 -326.71,41.89 -326.74,-54.29 -756,-347.48 -976.06,80.66l0 0z"/>
  <path class="fil2" d="M12968.67 2012.4c121.64,-43.42 232.41,-82.21 362.27,-63.6 354.05,52.74 671.19,344.38 940.5,-58.93 -109.36,26.36 -213.25,60.49 -326.7,41.87 -326.75,-54.29 -756.01,-347.48 -976.07,80.66l0 0z"/>
  <path class="fil2" d="M16431.54 2015.36c121.67,-43.43 232.37,-82.21 362.23,-63.59 354.08,52.73 671.23,344.37 940.54,-58.94 -109.36,26.36 -213.25,60.48 -326.74,41.88 -326.71,-54.3 -755.93,-347.49 -976.03,80.65l0 0z"/>
  <path class="fil2" d="M1730.58 2013.96c121.65,-43.44 232.4,-82.22 362.26,-63.6 354.05,52.74 671.21,344.37 940.51,-58.95 -109.36,26.37 -213.26,60.49 -326.72,41.88 -326.71,-54.3 -755.97,-347.48 -976.05,80.67l0 0z"/>
  <path class="fil3" d="M3615.69 3496.96l183.98 0c55.81,0 94.31,4.14 115.5,12.56 26.43,10.03 48.29,27.01 65.61,51.07 17.2,24.2 25.86,54.81 25.86,91.97 0,31.69 -6.61,59.09 -19.71,82.22 -15.83,27.68 -35.08,47.46 -57.63,59.09 -22.56,11.62 -58.21,17.51 -106.74,17.51l-85.21 0 0 138.77c0,20.98 1.03,34.21 2.96,39.7 2.74,7.62 6.39,12.96 10.94,15.9 4.67,3.07 14.12,4.55 28.25,4.55l15.94 0 0 32.88 -179.75 0 0 -32.88 10.94 0c15.26,0 25.74,-1.48 31.21,-4.55 5.59,-2.94 9.56,-7.61 12.07,-13.9 2.63,-6.42 3.88,-18.45 3.88,-36.1l0 -373.78c0,-17.37 -1.13,-29 -3.54,-34.89 -2.27,-6.01 -6.14,-10.28 -11.61,-13.09 -5.35,-2.81 -16.07,-4.15 -32.01,-4.15l-10.94 0 0 -32.88zm121.66 42.51l0 229.4 71.88 0c36.34,0 61.74,-3.74 76.32,-11.37 14.7,-7.62 26.77,-20.72 36.34,-39.43 9.57,-18.72 14.35,-40.51 14.35,-65.64 0,-27.54 -5.58,-50.4 -16.75,-68.84 -11.16,-18.46 -26.31,-30.89 -45.44,-37.43 -13.33,-4.42 -39.41,-6.69 -78.15,-6.69l-58.55 0zm475.81 -42.51l55.71 0 144.22 456.79c7.05,22.86 14.23,38.1 21.53,45.45 7.18,7.36 16.96,11.1 29.15,11.1l7.41 0 0 32.88 -165.51 0 0 -32.88c5.35,-0.54 10.48,-0.8 15.6,-0.8 10.71,0 17.77,-1.34 21.07,-3.88 6.5,-4.94 9.69,-11.23 9.69,-18.72 0,-5.47 -3.08,-18.98 -9.34,-40.23l-31.45 -105.61 -167.91 0 -36.21 118.04c-3.77,12.29 -5.59,20.72 -5.59,25.4 0,5.22 1.14,9.75 3.42,13.64 2.39,4.01 5.58,6.94 9.57,8.82 3.98,2.01 10.48,2.93 19.37,2.93 6.03,0 10.93,0.14 14.69,0.41l0 32.88 -139.2 0 0 -32.88c12.87,0 22.21,-1.48 27.91,-4.55 5.58,-2.94 10.59,-7.75 14.81,-14.43 4.21,-6.56 9.79,-20.59 16.74,-41.98l144.32 -452.38zm-57.97 305.6l143.64 0 -71.65 -235.02 -71.99 235.02zm664.11 -305.6l24.03 0 35.66 168.44 -30.75 11.22c-19.61,-47.05 -45.69,-84.21 -78.15,-111.21 -26.77,-22.6 -56.39,-33.97 -88.85,-33.97 -19.6,0 -37.26,4.15 -52.86,12.31 -15.49,8.29 -27.23,18.84 -34.97,31.94 -7.86,12.97 -11.73,26.34 -11.73,39.84 0,12.31 2.96,24.06 8.99,35.56 6.05,11.5 15.27,21.66 27.57,30.35 12.19,8.68 32.36,17.91 60.27,27.54l87.25 29.41c10.71,3.61 26.21,10.69 46.47,21.12 20.4,10.43 36.23,21.39 47.51,33.02 11.39,11.63 20.28,25.8 26.65,42.64 6.5,16.85 9.68,35.03 9.68,54.54 0,43.32 -16.17,81.15 -48.52,113.64 -32.36,32.48 -74.28,48.65 -125.65,48.65 -26.43,0 -50.12,-4.53 -71.07,-13.5 -20.85,-8.95 -43.41,-24.86 -67.67,-47.86l-15.38 52.54 -23.47 0 -30.98 -196.5 30.76 -7.22c11.39,36.09 26.42,66.83 45.33,91.97 18.8,25.26 39.65,44.25 62.43,57.22 22.89,12.82 46.13,19.25 69.72,19.25 32.11,0 60.25,-11.37 84.29,-33.97 20.05,-18.97 30.08,-41.3 30.08,-67.1 0,-23.66 -7.31,-43.05 -21.77,-58.16 -14.69,-15.1 -41.01,-29.14 -78.82,-42.11l-83.39 -28.07c-46.82,-15.9 -79.85,-36.22 -98.99,-60.96 -19.14,-24.72 -28.7,-53.2 -28.7,-85.16 0,-24.99 6.26,-48.12 18.68,-69.37 12.42,-21.26 31.55,-39.04 57.41,-53.35 25.75,-14.3 53.99,-21.52 84.75,-21.52 25.74,0 50.47,5.22 74.04,15.78 16.64,7.35 32.02,17.78 46.02,31.42l14.13 -38.37zm147.96 -18.46l23.25 0 3.3 18.46 284.56 0 2.62 -18.46 24.6 0 49.21 160.43 -30.07 12.84c-14.47,-42.79 -31.56,-72.86 -51.38,-90.25 -19.82,-17.37 -45.22,-26.06 -76.09,-26.06 -12.99,0 -20.62,0.53 -23.02,1.73 -2.5,1.21 -4.21,3.21 -5.23,6.15 -1.03,2.82 -1.48,11.9 -1.48,27.28l0 378.72c0,18.05 0.8,30.34 2.5,36.62 1.6,6.3 3.99,11.11 7.17,14.44 3.09,3.48 7.3,5.89 12.77,7.36 5.36,1.47 17.54,2.27 36.34,2.54l0 32.88 -178.39 0 0 -32.88c19.81,-0.27 31.89,-1.07 36.46,-2.4 7.73,-2.54 13.32,-7.5 16.62,-14.85 3.3,-7.35 5.01,-20.85 5.01,-40.5l0 -387.01c0,-11.9 -0.46,-19.25 -1.48,-21.92 -1.02,-2.55 -2.96,-4.55 -5.69,-6.02 -2.74,-1.48 -8.43,-2.14 -17.09,-2.14 -24.26,0 -43.63,3.61 -58.21,10.96 -14.47,7.35 -28.25,19.65 -41.13,37.17 -12.86,17.5 -23.8,40.23 -32.91,68.18l-30.07 -12.84 47.83 -160.43zm414.31 18.46l378.65 0 43.74 143.44 -29.39 12.97c-7.4,-23.53 -15.38,-41.98 -24.15,-55.35 -8.65,-13.5 -19.14,-24.87 -31.33,-34.22 -12.18,-9.5 -24.37,-15.65 -36.8,-18.85 -12.41,-3.08 -34.85,-4.68 -67.19,-4.68l-113.24 0 0 200.53 56.28 0c20.73,0 36.33,-4.15 46.93,-12.44 10.59,-8.16 18,-18.44 21.99,-30.87 3.07,-9.1 4.66,-25.14 4.66,-47.86l0 -9.1 32.81 0 0 239.83 -32.81 0 0 -20.73c0,-18.31 -1.13,-31.54 -3.52,-39.57 -2.29,-8.14 -6.62,-15.77 -12.88,-22.99 -6.27,-7.22 -12.99,-12.03 -20.28,-14.7 -7.17,-2.54 -19.59,-3.88 -36.9,-3.88l-56.28 0 0 177c0,18.44 0.69,29.68 2.17,33.69 1.48,4 3.87,6.95 7.18,8.82 3.41,1.74 12.52,2.68 27.44,2.68l70.06 0c39.08,0 69.6,-5.49 91.59,-16.45 21.98,-10.96 41.35,-27.67 58.1,-50.27 13.1,-17.5 25.74,-42.37 37.71,-74.46l30.4 12.57 -51.94 171.11 -393 0 0 -32.88 13.33 0c15.49,0 25.06,-1.2 28.82,-3.47 5.81,-3.48 10.25,-8.83 13.33,-16.45 2.16,-5.08 3.3,-16.45 3.3,-33.82l0 -376.19c0,-17.11 -1.48,-28.61 -4.33,-34.35 -2.85,-5.75 -7.86,-10.3 -14.92,-13.37 -3.76,-1.87 -16.97,-2.81 -39.53,-2.81l0 -32.88zm490.85 0l179.75 0 0 32.88 -16.74 0c-12.88,0 -21.99,1.47 -27.34,4.28 -5.36,2.94 -9.23,7.22 -11.73,12.7 -2.4,5.48 -3.65,15.37 -3.65,29.55l0 380.45c0,17.52 0.57,27.94 1.71,31.29 1.25,4.68 4.21,8.15 8.65,10.16 3.19,1.6 12.19,2.41 27.12,2.41l25.17 0c28.82,0 53.88,-4.82 75.07,-14.57 21.18,-9.77 39.52,-23.93 54.8,-42.52 15.37,-18.58 30.18,-46.38 44.3,-83.28l29.73 11.76 -52.06 171.11 -334.78 0 0 -32.88 14.69 0c14.24,0 23.81,-1.48 28.71,-4.41 4.9,-2.94 8.65,-7.75 11.39,-14.44 2.62,-6.82 3.98,-18.45 3.98,-34.89l0 -370.57c0,-18.98 -1.25,-31.69 -3.64,-38.1 -2.5,-6.55 -6.03,-11.09 -10.71,-13.9 -4.67,-2.81 -14.58,-4.15 -29.73,-4.15l-14.69 0 0 -32.88zm411.56 0l378.65 0 43.74 143.44 -29.39 12.97c-7.41,-23.53 -15.37,-41.98 -24.15,-55.35 -8.66,-13.5 -19.14,-24.87 -31.33,-34.22 -12.18,-9.5 -24.37,-15.65 -36.8,-18.85 -12.41,-3.08 -34.85,-4.68 -67.2,-4.68l-113.23 0 0 200.53 56.27 0c20.74,0 36.35,-4.15 46.94,-12.44 10.58,-8.16 18,-18.44 21.98,-30.87 3.08,-9.1 4.67,-25.14 4.67,-47.86l0 -9.1 32.81 0 0 239.83 -32.81 0 0 -20.73c0,-18.31 -1.14,-31.54 -3.53,-39.57 -2.28,-8.14 -6.61,-15.77 -12.87,-22.99 -6.27,-7.22 -12.99,-12.03 -20.28,-14.7 -7.18,-2.54 -19.6,-3.88 -36.91,-3.88l-56.27 0 0 177c0,18.44 0.68,29.68 2.17,33.69 1.47,4 3.87,6.95 7.18,8.82 3.41,1.74 12.53,2.68 27.44,2.68l70.07 0c39.07,0 69.6,-5.49 91.57,-16.45 22,-10.96 41.35,-27.67 58.11,-50.27 13.1,-17.5 25.74,-42.37 37.7,-74.46l30.41 12.57 -51.94 171.11 -393 0 0 -32.88 13.33 0c15.49,0 25.05,-1.2 28.82,-3.47 5.81,-3.48 10.25,-8.83 13.33,-16.45 2.16,-5.08 3.3,-16.45 3.3,-33.82l0 -376.19c0,-17.11 -1.48,-28.61 -4.33,-34.35 -2.85,-5.75 -7.86,-10.3 -14.92,-13.37 -3.76,-1.87 -16.98,-2.81 -39.53,-2.81l0 -32.88zm492.9 0l239.33 0c45.45,0 79.85,5.61 103.09,16.71 23.24,11.09 41.12,27.13 53.65,48.13 12.53,20.98 18.8,45.31 18.8,72.98 0,28.48 -6.04,53.74 -18.23,75.8 -12.19,22.06 -29.73,39.44 -52.63,52.14 -22.89,12.7 -53.31,19.25 -91.13,19.78l121.78 176.07c10.02,14.7 16.51,23.65 19.71,27 7.74,8.15 15.94,14.3 24.48,18.44 8.55,4.15 18.11,6.29 28.83,6.29l8.32 0 0 32.88 -106.06 0 -170.19 -260.68 -59.46 0 0 168.44c0,18.72 0.58,30.49 1.6,35.17 2.5,8.82 6.37,15.1 11.72,18.71 5.47,3.61 15.96,5.48 31.56,5.48l11.85 0 0 32.88 -177.02 0 0 -32.88 15.94 0c11.97,0 19.94,-0.94 24.05,-2.68 4.09,-1.87 7.73,-5.08 10.93,-9.62 3.3,-4.54 5.58,-10.29 6.83,-17.38 0.45,-2.8 0.8,-15.9 1.03,-39.3l0 -357.73c0,-15.91 -1.37,-27.28 -3.99,-34.23 -2.61,-6.95 -6.38,-11.9 -11.17,-14.97 -4.66,-3.08 -12.98,-4.55 -24.72,-4.55l-18.9 0 0 -32.88zm120.29 42.51l0 206.14 95.34 0c32.25,0 55.02,-2.4 68,-7.08 18.7,-6.3 33.28,-17.79 44.09,-34.5 10.71,-16.84 16.07,-38.1 16.07,-64.03 0,-22.06 -3.88,-40.51 -11.62,-55.62 -7.75,-14.97 -18.35,-26.19 -31.67,-33.69 -13.45,-7.48 -33.38,-11.22 -60.04,-11.22l-120.17 0zm365.77 -42.51l177.7 0 0 32.88 -13.67 0c-12.75,0 -22.1,2.14 -27.79,6.28 -5.81,4.15 -10.02,10.17 -12.64,17.78 -2.63,7.76 -4,22.73 -4,44.92l0 352.12c0,17.78 1.49,30.49 4.34,37.97 2.84,7.49 6.94,12.84 12.06,16.3 5.26,3.35 14.59,5.09 28.03,5.09l13.67 0 0 32.88 -177.7 0 0 -32.88 14.7 0c13.1,0 22.43,-1.74 27.9,-5.35 5.47,-3.48 9.34,-8.55 11.85,-15.23 2.39,-6.69 3.64,-19.66 3.64,-38.78l0 -359.34c0,-20.45 -1.25,-34.22 -3.64,-41.17 -2.51,-7.09 -6.38,-12.3 -11.85,-15.64 -5.47,-3.35 -14.8,-4.95 -27.9,-4.95l-14.7 0 0 -32.88zm409.29 0l55.7 0 144.22 456.79c7.06,22.86 14.23,38.1 21.53,45.45 7.17,7.36 16.97,11.1 29.16,11.1l7.4 0 0 32.88 -165.51 0 0 -32.88c5.35,-0.54 10.47,-0.8 15.61,-0.8 10.7,0 17.76,-1.34 21.06,-3.88 6.5,-4.94 9.69,-11.23 9.69,-18.72 0,-5.47 -3.07,-18.98 -9.34,-40.23l-31.44 -105.61 -167.91 0 -36.23 118.04c-3.76,12.29 -5.58,20.72 -5.58,25.4 0,5.22 1.15,9.75 3.42,13.64 2.39,4.01 5.58,6.94 9.57,8.82 3.99,2.01 10.48,2.93 19.36,2.93 6.05,0 10.94,0.14 14.69,0.41l0 32.88 -139.19 0 0 -32.88c12.87,0 22.21,-1.48 27.91,-4.55 5.58,-2.94 10.59,-7.75 14.8,-14.43 4.22,-6.56 9.8,-20.59 16.76,-41.98l144.32 -452.38zm-57.98 305.6l143.64 0 -71.65 -235.02 -71.99 235.02zm573.32 -305.6l356.09 0 43.06 143.44 -28.71 12.97c-12.29,-33.56 -24.37,-57.62 -36.22,-72.32 -11.85,-14.57 -25.63,-25.14 -41.24,-31.42 -15.71,-6.29 -40.21,-9.36 -73.81,-9.36l-100.93 0 0 210.15 46.03 0c24.14,0 41.46,-2.81 51.93,-8.29 10.6,-5.48 18.57,-14.04 24.15,-25.93 5.59,-11.9 8.44,-28.88 8.44,-50.8l0 -14.44 32.8 0 0 239.82 -32.8 0 0 -21.11c0,-20.73 -2.74,-36.77 -8.1,-48.26 -5.35,-11.5 -12.64,-19.79 -21.97,-24.87 -9.23,-5.08 -25.75,-7.62 -49.44,-7.62l-51.04 0 0 170.05c0,15.5 1.37,26.33 4.22,32.48 2.73,6.02 6.83,10.7 12.3,14.04 5.46,3.2 15.15,4.81 29.27,4.81l12.31 0 0 32.88 -176.34 0 0 -32.88 11.39 0c14.24,0 24.03,-1.61 29.5,-4.68 5.47,-3.08 9.46,-8.02 11.97,-14.57 2.61,-6.69 3.87,-18.72 3.87,-36.09l0 -371.37c0,-16.45 -1.26,-27.94 -3.65,-34.63 -2.5,-6.69 -6.15,-11.5 -11.16,-14.57 -5.01,-3.08 -13.78,-4.55 -26.2,-4.55l-15.72 0 0 -32.88zm428.66 0l177.69 0 0 32.88 -13.66 0c-12.77,0 -22.1,2.14 -27.8,6.28 -5.81,4.15 -10.02,10.17 -12.64,17.78 -2.62,7.76 -3.99,22.73 -3.99,44.92l0 352.12c0,17.78 1.48,30.49 4.34,37.97 2.84,7.49 6.93,12.84 12.06,16.3 5.25,3.35 14.58,5.09 28.03,5.09l13.66 0 0 32.88 -177.69 0 0 -32.88 14.69 0c13.1,0 22.44,-1.74 27.91,-5.35 5.47,-3.48 9.33,-8.55 11.85,-15.23 2.39,-6.69 3.64,-19.66 3.64,-38.78l0 -359.34c0,-20.45 -1.25,-34.22 -3.64,-41.17 -2.52,-7.09 -6.38,-12.3 -11.85,-15.64 -5.47,-3.35 -14.81,-4.95 -27.91,-4.95l-14.69 0 0 -32.88zm234.31 0l142.17 0 212.56 409.6 0 -311.75c0,-18.58 -1.6,-32.09 -4.67,-40.1 -3.08,-8.16 -7.75,-14.31 -13.89,-18.59 -6.27,-4.14 -15.39,-6.28 -27.57,-6.28l-11.97 0 0 -32.88 155.16 0 0 32.88 -8.33 0c-13.67,0 -23,1.34 -27.79,3.88 -6.94,3.74 -12.07,10.43 -15.49,20.18 -3.42,9.63 -5.13,23.26 -5.13,40.91l0 448.37 -40.32 0 -255.62 -492.21 0 390.35c0,21.52 0.57,34.62 1.71,39.3 1.48,6.02 4.32,11.5 8.42,16.45 4.11,4.94 8.89,8.29 14.47,10.15 5.47,1.75 16.63,2.81 33.49,3.08l0 32.88 -157.2 0 0 -32.88 8.32 0c16.06,0 26.88,-1.87 32.58,-5.48 5.69,-3.61 10.13,-9.89 13.21,-18.71 3.08,-8.83 4.67,-23.8 4.67,-44.79l0 -346.51c0,-21.79 -0.45,-35.02 -1.36,-39.7 -1.94,-8.95 -5.82,-15.38 -11.51,-19.39 -5.7,-3.87 -16.97,-5.88 -33.84,-5.88l-12.07 0 0 -32.88zm680.51 0l55.71 0 144.22 456.79c7.05,22.86 14.23,38.1 21.52,45.45 7.18,7.36 16.97,11.1 29.16,11.1l7.41 0 0 32.88 -165.51 0 0 -32.88c5.34,-0.54 10.48,-0.8 15.6,-0.8 10.7,0 17.76,-1.34 21.06,-3.88 6.51,-4.94 9.69,-11.23 9.69,-18.72 0,-5.47 -3.07,-18.98 -9.34,-40.23l-31.44 -105.61 -167.91 0 -36.21 118.04c-3.77,12.29 -5.6,20.72 -5.6,25.4 0,5.22 1.15,9.75 3.43,13.64 2.39,4.01 5.58,6.94 9.56,8.82 3.99,2.01 10.48,2.93 19.37,2.93 6.04,0 10.94,0.14 14.7,0.41l0 32.88 -139.2 0 0 -32.88c12.87,0 22.2,-1.48 27.91,-4.55 5.57,-2.94 10.58,-7.75 14.8,-14.43 4.21,-6.56 9.8,-20.59 16.75,-41.98l144.32 -452.38zm-57.98 305.6l143.64 0 -71.65 -235.02 -71.99 235.02zm569.22 -272.72l0 -32.88 166.32 0c76.09,0 129.18,5.61 159.24,16.84 44.31,16.44 80.2,47.06 107.77,91.97 30.52,49.61 45.79,106.68 45.79,171.12 0,43.85 -7.51,84.62 -22.55,122.45 -15.05,37.7 -34.75,68.05 -59.24,91.04 -20.28,19.25 -44.65,32.88 -73.13,40.91 -28.48,7.89 -57.18,11.89 -86.12,11.89l-238.08 0 0 -32.88 19.37 0 6.38 0.4c8.19,0 14.92,-2.01 20.16,-5.88 5.23,-3.88 9,-9.09 11.16,-15.51 1.6,-4.95 2.39,-16.44 2.39,-34.35l0 -365.77c0,-20.72 -1.14,-34.08 -3.3,-40.1 -3.18,-8.15 -8.2,-13.76 -15.04,-16.84 -3.98,-1.6 -17.77,-2.41 -41.12,-2.41zm120.97 470.84l100.83 0c10.02,0 26.65,-2.14 49.88,-6.29 23.24,-4.14 39.87,-9.22 49.9,-15.24 14.7,-8.96 28.93,-23.26 42.72,-42.91 13.78,-19.78 24.38,-43.45 31.89,-70.99 7.41,-27.54 11.17,-59.08 11.17,-94.65 0,-35.15 -3.76,-65.76 -11.17,-91.7 -7.51,-25.8 -18.68,-49.06 -33.72,-69.65 -15.03,-20.72 -31.66,-36.36 -50.12,-47.19 -18.34,-10.96 -38.85,-17.78 -61.51,-20.58 -12.3,-1.34 -32.7,-2.01 -61.4,-2.01l-68.47 0 0 461.21zm426.38 -503.72l378.65 0 43.73 143.44 -29.38 12.97c-7.41,-23.53 -15.38,-41.98 -24.16,-55.35 -8.64,-13.5 -19.13,-24.87 -31.32,-34.22 -12.19,-9.5 -24.38,-15.65 -36.79,-18.85 -12.42,-3.08 -34.86,-4.68 -67.21,-4.68l-113.23 0 0 200.53 56.27 0c20.74,0 36.34,-4.15 46.93,-12.44 10.6,-8.16 18,-18.44 22,-30.87 3.07,-9.1 4.66,-25.14 4.66,-47.86l0 -9.1 32.8 0 0 239.83 -32.8 0 0 -20.73c0,-18.31 -1.14,-31.54 -3.53,-39.57 -2.28,-8.14 -6.61,-15.77 -12.87,-22.99 -6.27,-7.22 -12.99,-12.03 -20.28,-14.7 -7.18,-2.54 -19.59,-3.88 -36.91,-3.88l-56.27 0 0 177c0,18.44 0.69,29.68 2.17,33.69 1.48,4 3.87,6.95 7.17,8.82 3.42,1.74 12.53,2.68 27.45,2.68l70.06 0c39.07,0 69.6,-5.49 91.59,-16.45 21.98,-10.96 41.34,-27.67 58.09,-50.27 13.11,-17.5 25.75,-42.37 37.71,-74.46l30.41 12.57 -51.94 171.11 -393 0 0 -32.88 13.33 0c15.49,0 25.06,-1.2 28.82,-3.47 5.8,-3.48 10.25,-8.83 13.32,-16.45 2.17,-5.08 3.3,-16.45 3.3,-33.82l0 -376.19c0,-17.11 -1.47,-28.61 -4.32,-34.35 -2.85,-5.75 -7.87,-10.3 -14.92,-13.37 -3.76,-1.87 -16.97,-2.81 -39.53,-2.81l0 -32.88zm805.02 0l24.03 0 35.66 168.44 -30.75 11.22c-19.61,-47.05 -45.69,-84.21 -78.16,-111.21 -26.77,-22.6 -56.38,-33.97 -88.84,-33.97 -19.61,0 -37.26,4.15 -52.86,12.31 -15.49,8.29 -27.23,18.84 -34.97,31.94 -7.86,12.97 -11.74,26.34 -11.74,39.84 0,12.31 2.97,24.06 9,35.56 6.04,11.5 15.26,21.66 27.57,30.35 12.19,8.68 32.36,17.91 60.26,27.54l87.26 29.41c10.7,3.61 26.2,10.69 46.47,21.12 20.39,10.43 36.23,21.39 47.51,33.02 11.38,11.63 20.28,25.8 26.65,42.64 6.49,16.85 9.68,35.03 9.68,54.54 0,43.32 -16.18,81.15 -48.52,113.64 -32.36,32.48 -74.28,48.65 -125.65,48.65 -26.43,0 -50.12,-4.53 -71.08,-13.5 -20.84,-8.95 -43.39,-24.86 -67.66,-47.86l-15.38 52.54 -23.47 0 -30.98 -196.5 30.76 -7.22c11.39,36.09 26.42,66.83 45.33,91.97 18.8,25.26 39.64,44.25 62.43,57.22 22.89,12.82 46.13,19.25 69.71,19.25 32.12,0 60.26,-11.37 84.3,-33.97 20.04,-18.97 30.07,-41.3 30.07,-67.1 0,-23.66 -7.3,-43.05 -21.76,-58.16 -14.7,-15.1 -41.01,-29.14 -78.83,-42.11l-83.38 -28.07c-46.82,-15.9 -79.85,-36.22 -98.99,-60.96 -19.14,-24.72 -28.71,-53.2 -28.71,-85.16 0,-24.99 6.26,-48.12 18.69,-69.37 12.42,-21.26 31.54,-39.04 57.41,-53.35 25.74,-14.3 53.99,-21.52 84.74,-21.52 25.75,0 50.48,5.22 74.05,15.78 16.64,7.35 32.01,17.78 46.02,31.42l14.13 -38.37zm137.71 32.88l0 -32.88 166.32 0c76.09,0 129.18,5.61 159.25,16.84 44.3,16.44 80.19,47.06 107.76,91.97 30.53,49.61 45.79,106.68 45.79,171.12 0,43.85 -7.52,84.62 -22.56,122.45 -15.03,37.7 -34.74,68.05 -59.23,91.04 -20.27,19.25 -44.65,32.88 -73.13,40.91 -28.48,7.89 -57.18,11.89 -86.11,11.89l-238.09 0 0 -32.88 19.37 0 6.37 0.4c8.21,0 14.93,-2.01 20.17,-5.88 5.24,-3.88 9,-9.09 11.17,-15.51 1.59,-4.95 2.38,-16.44 2.38,-34.35l0 -365.77c0,-20.72 -1.13,-34.08 -3.3,-40.1 -3.19,-8.15 -8.2,-13.76 -15.03,-16.84 -3.99,-1.6 -17.78,-2.41 -41.13,-2.41zm120.97 470.84l100.82 0c10.03,0 26.66,-2.14 49.89,-6.29 23.24,-4.14 39.87,-9.22 49.9,-15.24 14.7,-8.96 28.93,-23.26 42.72,-42.91 13.78,-19.78 24.37,-43.45 31.89,-70.99 7.4,-27.54 11.17,-59.08 11.17,-94.65 0,-35.15 -3.77,-65.76 -11.17,-91.7 -7.52,-25.8 -18.67,-49.06 -33.71,-69.65 -15.05,-20.72 -31.68,-36.36 -50.13,-47.19 -18.34,-10.96 -38.85,-17.78 -61.51,-20.58 -12.3,-1.34 -32.7,-2.01 -61.4,-2.01l-68.47 0 0 461.21zm426.38 -503.72l378.65 0 43.74 143.44 -29.39 12.97c-7.41,-23.53 -15.38,-41.98 -24.15,-55.35 -8.65,-13.5 -19.14,-24.87 -31.33,-34.22 -12.18,-9.5 -24.37,-15.65 -36.8,-18.85 -12.41,-3.08 -34.85,-4.68 -67.2,-4.68l-113.24 0 0 200.53 56.28 0c20.74,0 36.34,-4.15 46.94,-12.44 10.59,-8.16 18,-18.44 21.98,-30.87 3.08,-9.1 4.67,-25.14 4.67,-47.86l0 -9.1 32.81 0 0 239.83 -32.81 0 0 -20.73c0,-18.31 -1.13,-31.54 -3.53,-39.57 -2.28,-8.14 -6.61,-15.77 -12.87,-22.99 -6.27,-7.22 -12.99,-12.03 -20.28,-14.7 -7.17,-2.54 -19.59,-3.88 -36.91,-3.88l-56.28 0 0 177c0,18.44 0.69,29.68 2.18,33.69 1.48,4 3.87,6.95 7.18,8.82 3.41,1.74 12.52,2.68 27.44,2.68l70.06 0c39.08,0 69.6,-5.49 91.59,-16.45 21.98,-10.96 41.35,-27.67 58.1,-50.27 13.1,-17.5 25.74,-42.37 37.7,-74.46l30.41 12.57 -51.94 171.11 -393 0 0 -32.88 13.33 0c15.49,0 25.06,-1.2 28.82,-3.47 5.81,-3.48 10.25,-8.83 13.33,-16.45 2.16,-5.08 3.3,-16.45 3.3,-33.82l0 -376.19c0,-17.11 -1.48,-28.61 -4.33,-34.35 -2.85,-5.75 -7.86,-10.3 -14.92,-13.37 -3.76,-1.87 -16.98,-2.81 -39.53,-2.81l0 -32.88zm907.2 0l25.06 0 0 453.19c0,21.52 1.13,35.28 3.53,41.43 2.28,6.15 6.15,10.83 11.51,14.04 5.23,3.07 15.82,4.68 31.55,4.68l32.68 0 0 32.88 -220.07 0 0 -32.88 36.56 0c15.84,0 26.32,-1.61 31.55,-4.94 5.25,-3.21 9.35,-8.42 12.31,-15.64 2.85,-7.22 4.33,-20.46 4.33,-39.57l0 -372.18 -84.75 0 0 -33.69c46.14,-7.62 84.75,-23.39 115.74,-47.32zm273.27 555.04l0 -36.09c55.14,-0.8 99.67,-10.16 133.62,-27.94 33.83,-17.91 58.78,-44.78 74.61,-80.74 15.95,-35.96 24.84,-79.95 26.89,-132.08 -11.4,20.32 -23.01,35.96 -34.86,47.19 -11.96,11.23 -25.86,19.92 -41.69,26.2 -15.94,6.28 -33.27,9.36 -51.94,9.36 -30.31,0 -57.19,-7.76 -80.88,-23.4 -23.7,-15.64 -42.15,-36.76 -55.25,-63.36 -13.1,-26.6 -19.7,-57.88 -19.7,-93.84 0,-57.36 14.8,-102.4 44.42,-135.29 32.69,-35.97 75.3,-53.88 127.58,-53.88 37.59,0 69.37,9.09 95.11,27.41 25.87,18.18 46.37,46.12 61.51,83.55 15.16,37.57 22.68,83.68 22.68,138.36 0,54.68 -7.86,103.61 -23.7,146.52 -15.83,43.04 -37.93,77.4 -66.29,103.34 -28.37,25.93 -59.58,43.17 -93.64,51.87 -34.06,8.55 -64.82,12.82 -92.38,12.82l-26.09 0zm122 -235.81c31.9,0 58.21,-14.17 78.84,-42.51 20.61,-28.21 30.86,-62.43 30.86,-102.27 0,-28.21 -5.01,-54.27 -15.04,-78.07 -10.02,-23.93 -22.89,-41.71 -38.62,-53.33 -15.71,-11.64 -33.59,-17.39 -53.65,-17.39 -30.53,0 -56.05,13.64 -76.55,40.91 -20.5,27.27 -30.75,63.9 -30.75,109.75 0,43.85 10.02,78.61 29.96,104.41 19.93,25.67 44.88,38.5 74.95,38.5zm487.89 -76.2c26.21,11.64 46.13,22.73 59.92,33.15 20.16,15.11 35.43,32.89 45.68,53.35 10.13,20.58 15.27,42.77 15.27,66.7 0,43.05 -15.83,80.21 -47.4,111.63 -31.66,31.41 -74.27,47.18 -127.92,47.18 -56.72,0 -101.27,-17.77 -133.5,-53.2 -25.63,-28.33 -38.39,-60.55 -38.39,-96.52 0,-29 8.65,-54.94 26.09,-77.93 20.84,-27.28 50.68,-48.66 89.41,-64.04 -30.18,-16.71 -51.94,-33.55 -65.27,-50.79 -17.08,-22.6 -25.63,-49.87 -25.63,-81.55 0,-39.31 12.65,-71.12 38.04,-95.32 31.11,-29.68 70.07,-44.52 116.77,-44.52 42.72,0 77.23,12.84 103.66,38.5 26.31,25.54 39.53,54.95 39.53,87.97 0,16.44 -3.3,32.08 -9.8,47.06 -6.6,14.96 -16.63,28.87 -30.19,41.7 -13.55,12.97 -32.34,25.13 -56.27,36.63zm-30.53 -14.57c25.29,-22.46 41.7,-38.1 49.21,-46.92 7.53,-8.96 13.33,-18.98 17.43,-30.34 4.1,-11.37 6.15,-22.46 6.15,-33.16 0,-15.38 -3.86,-30.08 -11.62,-43.99 -7.73,-13.89 -19.13,-25.26 -34.16,-33.82 -14.93,-8.68 -31.79,-12.97 -50.36,-12.97 -27.56,0 -50.46,8.97 -68.57,26.88 -18.23,17.78 -27.34,38.5 -27.34,62.02 0,18.72 5.7,35.57 16.98,50.4 11.38,14.98 32.45,29.55 63.32,43.86l38.96 18.04zm-47.16 50.13c-31.43,16.18 -56.27,37.16 -74.61,62.97 -14.24,20.45 -21.41,41.57 -21.41,63.5 0,29.67 11.27,56.14 33.83,79.27 22.56,23.13 51.6,34.62 87.37,34.62 36.33,0 66.64,-13.23 91.02,-39.57 19.81,-21.38 29.73,-44.37 29.73,-68.84 0,-19.39 -6.5,-37.83 -19.59,-55.48 -12.99,-17.52 -37.26,-34.76 -72.8,-51.47l-53.54 -25zm582.79 -289.02l0 36.09c-54.91,0.81 -99.34,10.17 -133.28,28.22 -33.84,17.9 -58.79,44.78 -74.85,80.61 -15.94,35.82 -24.94,79.93 -26.99,132.34 11.39,-20.45 23.01,-36.23 34.86,-47.73 11.96,-11.36 25.85,-20.05 41.69,-26.2 15.94,-6.15 33.37,-9.22 52.29,-9.22 30.18,0 57.18,7.88 80.76,23.52 23.58,15.65 41.92,36.77 55.01,63.51 13.1,26.73 19.72,58.28 19.72,94.5 0,57.76 -14.81,102.94 -44.43,135.83 -32.7,35.96 -75.18,54 -127.25,54 -37.58,0 -69.37,-9.08 -95.11,-27.39 -25.85,-18.19 -46.36,-46.13 -61.63,-83.69 -15.26,-37.56 -22.89,-84.09 -22.89,-139.43 0,-55.48 8.09,-104.81 24.14,-147.86 16.18,-43.05 38.51,-77.67 66.99,-103.73 28.47,-26.07 59.69,-43.18 93.64,-51.21 33.94,-8.15 64.35,-12.16 91.23,-12.16l26.1 0zm-121.78 235.81c-32.01,0 -58.44,14.18 -79.05,42.65 -20.63,28.34 -30.87,62.57 -30.87,102.4 0,28.07 5.01,54.15 15.03,77.94 10.02,23.93 23.01,41.57 38.73,53.21 15.84,11.63 33.72,17.37 53.54,17.37 30.75,0 56.38,-13.63 76.78,-40.91 20.39,-27.13 30.53,-63.76 30.53,-109.61 0,-43.72 -9.92,-78.61 -29.73,-104.41 -19.83,-25.8 -44.77,-38.64 -74.96,-38.64z"/>
 </g>
</svg>
